<svg xmlns="http://www.w3.org/2000/svg" xmlns:xlink="http://www.w3.org/1999/xlink" width="549" height="373" viewBox="0 0 549 373">
    <defs>
        <linearGradient id="c" x1="-47.406%" x2="107.422%" y1="156.625%" y2="-35.212%">
            <stop offset="0%" stop-color="#B917D7"/>
            <stop offset="40.349%" stop-color="#B715DD"/>
            <stop offset="73.814%" stop-color="#FFB854"/>
            <stop offset="100%" stop-color="#FFF"/>
        </linearGradient>
        <path id="b" d="M516 204.794c0 86.709-88.585 150.295-167.541 123.319-36.59 13.488-82.808 13.488-117.472-1.927-23.11-9.634-53.921-42.39-32.738-67.44-42.367 0-36.59-30.83-34.664-34.683-9.629 17.341 5.777 38.537 30.812 38.537-9.628 9.634-5.777 36.61 13.48 50.098C148.18 341.601 75 301.137 75 235.624c0-44.318 32.738-82.855 73.179-94.416 0-42.391 38.515-75.148 78.956-67.44 30.813-52.025 100.14-55.88 132.878-15.415 5.777 7.707 11.555 19.268 13.48 30.83-13.48 3.853-36.59 19.268-42.366 44.317 9.628-25.049 30.812-38.537 51.995-42.39C454.376 81.474 516 131.572 516 204.793z"/>
        <filter id="a" width="123.6%" height="133.9%" x="-11.8%" y="-16.3%" filterUnits="objectBoundingBox">
            <feOffset dy="2" in="SourceAlpha" result="shadowOffsetOuter1"/>
            <feGaussianBlur in="shadowOffsetOuter1" result="shadowBlurOuter1" stdDeviation="17"/>
            <feColorMatrix in="shadowBlurOuter1" values="0 0 0 0 0.954506803 0 0 0 0 0.157935775 0 0 0 0 0.785371858 0 0 0 0.519134964 0"/>
        </filter>
        <linearGradient id="d" x1="24.415%" x2="202.17%" y1="130.679%" y2="-620.233%">
            <stop offset="0%" stop-color="#9018FF"/>
            <stop offset="29.231%" stop-color="#FF5353"/>
            <stop offset="65.005%" stop-color="#F3FFA3"/>
            <stop offset="100%" stop-color="#FFF"/>
        </linearGradient>
        <linearGradient id="e" x1="-8.231%" x2="202.17%" y1="166.498%" y2="-620.233%">
            <stop offset="0%" stop-color="#8400FF"/>
            <stop offset="29.231%" stop-color="#FF5353"/>
            <stop offset="65.005%" stop-color="#F3FFA3"/>
            <stop offset="100%" stop-color="#FFF"/>
        </linearGradient>
    </defs>
    <g fill="none" fill-rule="evenodd">
        <g>
            <use fill="#000" filter="url(#a)" xlink:href="#b"/>
            <use fill="url(#c)" xlink:href="#b"/>
        </g>
        <path fill="url(#d)" d="M102.04 54C128.94 54 152 75.137 152 103.96c0 26.903-23.059 48.04-49.96 48.04C75.136 152 54 130.863 54 103.96 54 75.138 75.137 54 102.04 54z"/>
        <path fill="url(#e)" d="M96 5.793c0-7.724 13-7.724 13 0V34.76c0 9.655-13 9.655-13 0V5.793z"/>
        <path fill="url(#d)" d="M28.762 39.275c-5.714-7.588 3.81-17.073 9.524-9.485l20.952 18.97c5.714 5.691-3.81 15.176-9.524 9.485l-20.952-18.97zM5.793 109c-7.724 0-7.724-13 0-13H34.76c9.655 0 9.655 13 0 13H5.793z"/>
        <path fill="url(#e)" d="M38.286 175.093c-5.715 7.81-15.238-1.952-9.524-7.81l20.952-21.477c5.715-5.857 15.238 3.905 9.524 9.763l-20.952 19.524zM165.326 29.79c7.722-7.588 15.443 1.897 9.652 9.485l-19.304 18.97c-7.722 5.691-15.443-3.794-9.652-9.485l19.304-18.97z"/>
    </g>
</svg>
