<svg xmlns="http://www.w3.org/2000/svg" xmlns:xlink="http://www.w3.org/1999/xlink" width="124" height="122" viewBox="0 0 124 122">
    <defs>
        <linearGradient id="c" x1="-47.406%" x2="107.422%" y1="156.625%" y2="-35.212%">
            <stop offset="0%" stop-color="#B917D7"/>
            <stop offset="40.349%" stop-color="#B715DD"/>
            <stop offset="73.814%" stop-color="#FFB854"/>
            <stop offset="100%" stop-color="#FFF"/>
        </linearGradient>
        <circle id="b" cx="40.5" cy="40.5" r="9.5"/>
        <filter id="a" width="726.3%" height="726.3%" x="-313.2%" y="-302.6%" filterUnits="objectBoundingBox">
            <feOffset dy="2" in="SourceAlpha" result="shadowOffsetOuter1"/>
            <feGaussianBlur in="shadowOffsetOuter1" result="shadowBlurOuter1" stdDeviation="19.5"/>
            <feColorMatrix in="shadowBlurOuter1" values="0 0 0 0 0.954506803 0 0 0 0 0.157935775 0 0 0 0 0.785371858 0 0 0 0.519134964 0"/>
        </filter>
        <linearGradient id="f" x1="24.415%" x2="202.17%" y1="130.679%" y2="-620.233%">
            <stop offset="0%" stop-color="#9018FF"/>
            <stop offset="29.231%" stop-color="#FF5353"/>
            <stop offset="65.005%" stop-color="#F3FFA3"/>
            <stop offset="100%" stop-color="#FFF"/>
        </linearGradient>
        <path id="e" d="M39.963 18.447c.747.02 1.338.64 1.325 1.389a1.363 1.363 0 0 1-1.374 1.34 1.367 1.367 0 1 1 .049-2.73zm2.76-5.534a2.763 2.763 0 0 0-2.76-2.767 2.763 2.763 0 0 0-2.76 2.767 2.763 2.763 0 0 0 2.76 2.767 2.763 2.763 0 0 0 2.76-2.767zm-2.76-6.494a3.206 3.206 0 0 0 3.165-3.234A3.206 3.206 0 0 0 39.914 0a3.206 3.206 0 0 0-3.19 3.21 3.242 3.242 0 0 0 3.24 3.21zm-18.84 33.684a1.402 1.402 0 0 0-.838-1.32 1.396 1.396 0 0 0-1.536.279 1.405 1.405 0 0 0-.32 1.532c.214.529.726.874 1.295.874a1.36 1.36 0 0 0 1.398-1.365zm-8.317 2.767a2.763 2.763 0 0 0 2.76-2.767 2.763 2.763 0 0 0-2.76-2.767 2.763 2.763 0 0 0-2.76 2.767 2.763 2.763 0 0 0 2.76 2.767zm-9.641-5.976A3.206 3.206 0 0 0 0 40.128a3.206 3.206 0 0 0 3.214 3.185 3.206 3.206 0 0 0 3.189-3.21 3.242 3.242 0 0 0-3.238-3.21zm57.037 4.574a1.364 1.364 0 0 0 1.325-1.389 1.363 1.363 0 0 0-1.373-1.34 1.367 1.367 0 1 0 .049 2.73zm6.919-4.132a2.763 2.763 0 0 0-2.76 2.767 2.763 2.763 0 0 0 2.76 2.767 2.763 2.763 0 0 0 2.76-2.767 2.763 2.763 0 0 0-2.76-2.767zm9.64-.442a3.206 3.206 0 0 0-3.164 3.234 3.206 3.206 0 0 0 3.214 3.185A3.206 3.206 0 0 0 80 40.103a3.242 3.242 0 0 0-3.238-3.21zm-52.07 16.565a1.385 1.385 0 0 0 .619 2.313c.476.128.984-.008 1.332-.358a1.385 1.385 0 0 0-.618-2.313 1.377 1.377 0 0 0-1.332.358zm-5.887 3.91a2.81 2.81 0 0 0-.617 3.06 2.797 2.797 0 0 0 2.586 1.736 2.797 2.797 0 0 0 2.586-1.737 2.81 2.81 0 0 0-.618-3.058 2.828 2.828 0 0 0-3.937 0zm-7.139 6.53a3.253 3.253 0 0 0-.712 3.542 3.238 3.238 0 0 0 2.994 2.01 3.238 3.238 0 0 0 2.994-2.01 3.253 3.253 0 0 0-.713-3.541 3.232 3.232 0 0 0-4.563 0zm41.62-39.107a1.385 1.385 0 0 0 .617 2.314c.476.128.984-.009 1.333-.358a1.385 1.385 0 0 0 0-1.956 1.377 1.377 0 0 0-1.95 0zm3.9-5.903a2.81 2.81 0 0 0-.618 3.06 2.797 2.797 0 0 0 2.587 1.736 2.797 2.797 0 0 0 2.586-1.737 2.81 2.81 0 0 0-.618-3.059 2.828 2.828 0 0 0-3.937 0zm11.04-2.582a3.253 3.253 0 0 0 .712-3.541 3.238 3.238 0 0 0-2.994-2.01 3.238 3.238 0 0 0-2.994 2.01 3.253 3.253 0 0 0 .712 3.54 3.234 3.234 0 0 0 4.6 0h-.037zm-14.94 37.152a1.442 1.442 0 0 0 0 1.955c.538.54 1.411.54 1.95 0a1.385 1.385 0 0 0 0-1.955c-.55-.511-1.4-.511-1.95 0zm3.9 3.91a2.81 2.81 0 0 0-.618 3.06 2.797 2.797 0 0 0 2.587 1.736 2.797 2.797 0 0 0 2.586-1.737 2.81 2.81 0 0 0-.618-3.058 2.828 2.828 0 0 0-3.937 0zm6.513 6.53a3.253 3.253 0 0 0-.712 3.542 3.238 3.238 0 0 0 2.994 2.01 3.238 3.238 0 0 0 2.994-2.01 3.253 3.253 0 0 0-.713-3.541 3.232 3.232 0 0 0-4.563 0zM24.692 24.793a1.367 1.367 0 0 0 0 1.956c.538.54 1.412.54 1.95 0a1.385 1.385 0 0 0 0-1.956 1.36 1.36 0 0 0-1.95 0zm-5.888-5.903a2.81 2.81 0 0 0-.617 3.06 2.797 2.797 0 0 0 2.586 1.736 2.797 2.797 0 0 0 2.586-1.737 2.81 2.81 0 0 0-.618-3.059 2.828 2.828 0 0 0-3.937 0zm-7.139-7.157a3.253 3.253 0 0 0-.712 3.541 3.238 3.238 0 0 0 2.994 2.01 3.238 3.238 0 0 0 2.994-2.01 3.253 3.253 0 0 0-.713-3.541 3.232 3.232 0 0 0-4.563 0z"/>
        <filter id="d" width="192.5%" height="206.6%" x="-46.2%" y="-50.4%" filterUnits="objectBoundingBox">
            <feOffset dy="2" in="SourceAlpha" result="shadowOffsetOuter1"/>
            <feGaussianBlur in="shadowOffsetOuter1" result="shadowBlurOuter1" stdDeviation="12"/>
            <feColorMatrix in="shadowBlurOuter1" values="0 0 0 0 0.784313725 0 0 0 0 0.211764706 0 0 0 0 0.662745098 0 0 0 0.538666214 0"/>
        </filter>
        <path id="h" d="M39.963 56.644c.747.02 1.338.64 1.325 1.39a1.363 1.363 0 0 1-1.374 1.34 1.367 1.367 0 1 1 .049-2.73z"/>
        <filter id="g" width="2111%" height="2105.8%" x="-1005.5%" y="-948.7%" filterUnits="objectBoundingBox">
            <feOffset dy="2" in="SourceAlpha" result="shadowOffsetOuter1"/>
            <feGaussianBlur in="shadowOffsetOuter1" result="shadowBlurOuter1" stdDeviation="12"/>
            <feColorMatrix in="shadowBlurOuter1" values="0 0 0 0 0.784313725 0 0 0 0 0.211764706 0 0 0 0 0.662745098 0 0 0 0.538666214 0"/>
        </filter>
        <path id="j" d="M42.723 65.869a2.763 2.763 0 0 0-2.76-2.767 2.763 2.763 0 0 0-2.76 2.767 2.763 2.763 0 0 0 2.76 2.767 2.763 2.763 0 0 0 2.76-2.767z"/>
        <filter id="i" width="1440.6%" height="1437.2%" x="-670.3%" y="-632.4%" filterUnits="objectBoundingBox">
            <feOffset dy="2" in="SourceAlpha" result="shadowOffsetOuter1"/>
            <feGaussianBlur in="shadowOffsetOuter1" result="shadowBlurOuter1" stdDeviation="12"/>
            <feColorMatrix in="shadowBlurOuter1" values="0 0 0 0 0.784313725 0 0 0 0 0.211764706 0 0 0 0 0.662745098 0 0 0 0.538666214 0"/>
        </filter>
        <path id="l" d="M39.963 78.474a3.206 3.206 0 0 0 3.165-3.234 3.206 3.206 0 0 0-3.214-3.185 3.206 3.206 0 0 0-3.19 3.21 3.242 3.242 0 0 0 3.24 3.21z"/>
        <filter id="k" width="1255.7%" height="1252.8%" x="-577.9%" y="-545.2%" filterUnits="objectBoundingBox">
            <feOffset dy="2" in="SourceAlpha" result="shadowOffsetOuter1"/>
            <feGaussianBlur in="shadowOffsetOuter1" result="shadowBlurOuter1" stdDeviation="12"/>
            <feColorMatrix in="shadowBlurOuter1" values="0 0 0 0 0.784313725 0 0 0 0 0.211764706 0 0 0 0 0.662745098 0 0 0 0.538666214 0"/>
        </filter>
    </defs>
    <g fill="none" fill-rule="evenodd">
        <g transform="translate(22 20)">
            <use fill="#000" filter="url(#a)" xlink:href="#b"/>
            <use fill="url(#c)" xlink:href="#b"/>
        </g>
        <g fill-rule="nonzero" transform="translate(22 20)">
            <use fill="#000" filter="url(#d)" xlink:href="#e"/>
            <use fill="url(#f)" fill-rule="evenodd" xlink:href="#e"/>
        </g>
        <g transform="translate(22 20)">
            <use fill="#000" filter="url(#g)" xlink:href="#h"/>
            <use fill="url(#f)" xlink:href="#h"/>
        </g>
        <g transform="translate(22 20)">
            <use fill="#000" filter="url(#i)" xlink:href="#j"/>
            <use fill="url(#f)" xlink:href="#j"/>
        </g>
        <g transform="translate(22 20)">
            <use fill="#000" filter="url(#k)" xlink:href="#l"/>
            <use fill="url(#f)" xlink:href="#l"/>
        </g>
    </g>
</svg>
