<svg xmlns="http://www.w3.org/2000/svg" width="16" height="12" viewBox="0 0 16 12">
    <path fill="#FFF" fill-rule="nonzero" d="M10.69.003V0h.75l.275.05a3.124 3.124 0 0 1 .93.316c.14.071.267.144.38.217.113.073.214.15.303.232.089.083.227.104.414.064.188-.04.39-.095.606-.166.216-.071.43-.151.642-.24.212-.089.34-.145.387-.17l.072-.04.003-.003.014-.007.015-.007.014-.006.014-.007.003-.004.005-.003.004-.002.003-.004.014-.004.015-.003-.003.02-.004.02-.008.02-.007.02-.007.013-.007.014-.008.02a.434.434 0 0 0-.014.053c-.005.022-.05.11-.137.266a3.307 3.307 0 0 1-.325.473 2.4 2.4 0 0 1-.349.362 3.24 3.24 0 0 0-.206.173.611.611 0 0 1-.123.094l-.072.044-.014.006-.015.007-.003.004-.004.003-.004.002-.003.004-.015.007-.014.007-.003.004-.004.002-.005.003-.002.004-.003.004-.005.003-.004.002-.003.004h.072l.404-.08c.27-.053.527-.117.772-.193l.39-.12.043-.013.022-.007.014-.006.014-.007.015-.007.014-.006.03-.004.028-.003v.027l-.007.002-.007.004-.003.004-.005.003-.004.003-.003.004-.003.004-.004.002-.004.003-.003.004-.003.004-.004.003-.008.013-.007.013-.004.003-.183.226a1.91 1.91 0 0 1-.195.227c-.01.002-.023.016-.04.04a3.96 3.96 0 0 1-.307.297 7.092 7.092 0 0 1-.55.462c-.181.136-.273.303-.275.5a10.8 10.8 0 0 1-.033.67c-.02.248-.055.516-.108.805a8.985 8.985 0 0 1-.245.979c-.111.364-.246.72-.404 1.065a8.058 8.058 0 0 1-.498.933 9.096 9.096 0 0 1-.916 1.239c-.15.168-.338.358-.566.57-.229.21-.354.325-.375.346-.022.02-.116.092-.283.218a9.87 9.87 0 0 1-.534.381 6.25 6.25 0 0 1-.522.316c-.158.084-.35.18-.574.289a7.12 7.12 0 0 1-.724.303c-.26.094-.534.18-.823.26-.288.08-.567.142-.836.187-.27.044-.575.082-.917.113l-.512.046V12h-.938v-.007l-.122-.006a7.116 7.116 0 0 1-.202-.014 25.993 25.993 0 0 1-.599-.073 9.296 9.296 0 0 1-.815-.133 11.49 11.49 0 0 1-.88-.253 8.98 8.98 0 0 1-1-.377c-.276-.126-.45-.206-.52-.24a3.78 3.78 0 0 1-.233-.122l-.13-.074-.003-.004-.004-.002-.004-.003-.003-.004-.015-.007-.014-.006-.003-.004-.004-.003-.005-.003-.003-.004-.002-.004-.005-.002H0v-.027l.014.003.015.004.065.007c.043.004.16.01.353.02a7.051 7.051 0 0 0 2.078-.22c.308-.076.59-.165.848-.27.257-.104.44-.182.548-.234.108-.05.273-.144.494-.282l.332-.206.003-.004.004-.003.004-.003.003-.004.003-.004.004-.002.005-.003.002-.004.015-.004.014-.003.003-.013.005-.013.004-.003.003-.004-.116-.007a2.331 2.331 0 0 1-.563-.073 3.957 3.957 0 0 1-1.017-.413 2.558 2.558 0 0 1-.364-.244 6.099 6.099 0 0 1-.289-.271 2.735 2.735 0 0 1-.554-.794l-.12-.242-.007-.02-.007-.02-.005-.014-.002-.013.021.003.022.004.159.02c.105.013.271.017.497.013a4.17 4.17 0 0 0 .47-.027c.086-.013.139-.022.158-.026l.029-.007.036-.007.036-.006.003-.004.004-.003.004-.003.003-.004-.029-.006-.028-.007-.03-.007-.028-.006-.029-.007a2.824 2.824 0 0 1-.101-.027 5.809 5.809 0 0 1-.39-.146 3.07 3.07 0 0 1-.504-.247 3.458 3.458 0 0 1-.358-.262 3.906 3.906 0 0 1-.371-.37A3.053 3.053 0 0 1 .75 5.04a2.877 2.877 0 0 1-.104-.553l-.026-.28.015.003.014.004.015.007.014.007.015.006.014.007.224.093c.149.062.334.116.555.16.221.044.353.069.397.073l.065.007h.13l-.003-.004-.005-.003-.004-.002-.003-.004-.003-.004-.004-.003-.004-.003-.003-.004-.015-.006-.014-.007-.003-.004-.004-.003-.005-.002-.003-.004-.014-.007-.014-.007-.003-.004-.124-.085a1.84 1.84 0 0 1-.249-.217 8.045 8.045 0 0 1-.26-.28 2.16 2.16 0 0 1-.23-.313 3.668 3.668 0 0 1-.214-.423 2.837 2.837 0 0 1-.219-1.461c.015-.12.043-.256.087-.406.043-.151.105-.311.187-.48l.123-.253.007-.02.007-.02.005-.003.002-.004L1.1.535l.005-.002.004.002.003.004.003.004.004.003.004.003.003.004.003.004.005.002.007.014.007.013.004.003.003.004.195.2c.13.133.284.281.462.446.178.164.276.25.295.255.02.007.044.028.073.062.028.032.125.111.288.235.164.125.378.269.642.433.265.164.558.326.88.486.322.16.669.304 1.039.433.37.129.63.213.779.253.15.04.404.091.765.153.36.063.632.103.815.12.183.018.308.028.375.03l.1.004-.002-.02-.004-.02-.03-.167a2.893 2.893 0 0 1-.028-.466A2.828 2.828 0 0 1 8 1.964c.067-.173.133-.312.198-.416.065-.104.15-.223.256-.356.106-.133.243-.27.412-.413.168-.142.36-.268.577-.38a3.91 3.91 0 0 1 .598-.252c.183-.058.337-.096.462-.114.125-.017.188-.028.188-.03z"/>
</svg>
