<?xml version="1.0" encoding="UTF-8"?>
<svg width="21px" height="16px" viewBox="0 0 21 16" version="1.1" xmlns="http://www.w3.org/2000/svg" xmlns:xlink="http://www.w3.org/1999/xlink">
    <!-- Generator: Sketch 50.2 (55047) - http://www.bohemiancoding.com/sketch -->
    <title>twitter</title>
    <desc>Created with Sketch.</desc>
    <defs></defs>
    <g id="Page-1" stroke="none" stroke-width="1" fill="none" fill-rule="evenodd">
        <g id="0202-About-Tablet" transform="translate(-754.000000, -26.000000)" fill="#FFFFFF" fill-rule="nonzero">
            <g id="Group-18">
                <g id="Group-17">
                    <g id="Group-2" transform="translate(701.000000, 26.000000)">
                        <g id="social">
                            <g id="twitter" transform="translate(53.000000, 0.000000)">
                                <path d="M14.03156,0.00355160932 L14.03156,0 L15.0162308,0 L15.3760144,0.0674805771 C15.6158765,0.111289678 15.8336402,0.168701443 16.0293057,0.239733629 C16.2249901,0.310765816 16.4143499,0.393642619 16.597385,0.488346282 C16.7804391,0.583049945 16.9464509,0.67954717 17.0954202,0.777802442 C17.2431208,0.874885683 17.3756727,0.977882353 17.4930757,1.08679245 C17.6091912,1.19689234 17.7903517,1.22530522 18.0365194,1.17203108 C18.2826871,1.11875694 18.5477908,1.04475916 18.8318305,0.950055494 C19.1158702,0.855351831 19.3967665,0.748803552 19.6744815,0.630410655 C19.9522155,0.512017758 20.1213895,0.436847947 20.1819847,0.404883463 C20.2413111,0.371746948 20.2728774,0.353988901 20.2766646,0.351609323 L20.2804328,0.346281909 L20.2993688,0.337402886 L20.3183048,0.328523862 L20.3372408,0.319644839 L20.3561767,0.310765816 L20.3599639,0.305438402 L20.3656447,0.301886792 L20.3713445,0.298335183 L20.3751127,0.293007769 L20.3940487,0.287680355 L20.4129847,0.284128746 L20.4092164,0.310765816 L20.4035167,0.337402886 L20.3940487,0.364039956 L20.3845807,0.390677026 L20.3751127,0.408435072 L20.3656447,0.426193119 L20.3561767,0.452830189 C20.3498711,0.470588235 20.3435654,0.494259711 20.3372408,0.523862375 C20.3309351,0.553465039 20.2709648,0.671840178 20.157349,0.879023307 C20.0437331,1.08620644 19.9017133,1.2963374 19.7312894,1.50943396 C19.5608656,1.72253052 19.408128,1.88352497 19.2730577,1.99245283 C19.1367187,2.10255272 19.0464509,2.17949834 19.0022543,2.22330744 C18.9580766,2.26828857 18.904431,2.30971809 18.8412985,2.34761376 L18.7466186,2.40621532 L18.7276826,2.41509434 L18.7087466,2.42397336 L18.7049784,2.42930078 L18.6992786,2.43285239 L18.6935978,2.436404 L18.6898106,2.44173141 L18.6708747,2.45061043 L18.6519387,2.45948946 L18.6481704,2.46481687 L18.6424707,2.46836848 L18.6367899,2.47192009 L18.6330027,2.4772475 L18.6292344,2.48257492 L18.6235347,2.48612653 L18.6178539,2.48967814 L18.6140667,2.49500555 L18.7087466,2.49500555 L19.238954,2.38845727 C19.5924319,2.31742508 19.9301172,2.23160044 20.2520289,2.13096559 L20.7633003,1.97114317 L20.8201082,1.95338513 L20.8485122,1.9445061 L20.8674482,1.93562708 L20.8863841,1.92674806 L20.9053201,1.91786903 L20.9242561,1.90899001 L20.962128,1.9036626 L21,1.90011099 L21,1.93562708 L20.990532,1.93917869 L20.981064,1.9445061 L20.9772958,1.94983352 L20.971596,1.95338513 L20.9659152,1.95693674 L20.962128,1.96226415 L20.9583598,1.96759156 L20.9526601,1.97114317 L20.9469793,1.97469478 L20.9431921,1.9800222 L20.9394238,1.98534961 L20.9337241,1.98890122 L20.9242561,2.00665927 L20.9147881,2.02441731 L20.9091073,2.02796892 C20.9065888,2.03152053 20.8264328,2.13213762 20.6686204,2.32985572 C20.5108269,2.52874584 20.425615,2.62936293 20.4129847,2.63174251 C20.4003733,2.63529412 20.3826871,2.65305216 20.3599639,2.68501665 C20.3385095,2.71815316 20.2046889,2.85016648 19.9585212,3.08102109 C19.7123535,3.31187569 19.4712606,3.51726526 19.2351858,3.69722531 C18.9978611,3.87835738 18.8779206,4.10091898 18.8754022,4.36492786 C18.871615,4.62774695 18.8570911,4.9249101 18.8318305,5.2563818 C18.8065888,5.58787125 18.7592489,5.94598002 18.6898106,6.33074362 C18.6203913,6.71550721 18.5130812,7.15057936 18.367899,7.63596004 C18.2227358,8.12134073 18.0459874,8.59489456 17.8376916,9.05660377 C17.6293959,9.51831299 17.4116321,9.93266149 17.1844004,10.299667 C16.9571686,10.6666726 16.7488729,10.9774384 16.5595131,11.2319645 C16.3701533,11.4864906 16.1776501,11.7262242 15.9819657,11.9511654 C15.7863003,12.1761065 15.5388828,12.4294606 15.2396943,12.7112098 C14.9392372,12.9917869 14.775138,13.1456959 14.7473589,13.172919 C14.71833,13.19897 14.5946213,13.2960533 14.3761948,13.4641509 C14.1590748,13.6334384 13.9255185,13.8027259 13.6755636,13.9720311 C13.4268774,14.1401465 13.1983769,14.2804351 12.9900812,14.3928968 C12.7817854,14.5053585 12.5305807,14.6338024 12.2364292,14.7782464 C11.9435654,14.9238624 11.6266907,15.0588235 11.2858431,15.1831299 C10.9449955,15.3074362 10.5852119,15.4228635 10.2064923,15.5294118 C9.82777277,15.63596 9.4616835,15.7188368 9.10820559,15.7780244 C8.75474662,15.837212 8.35392876,15.8875383 7.90577096,15.9289678 L7.23354373,15.991121 L7.23354373,16 L6.00270514,16 L6.00270514,15.991121 L5.84174932,15.982242 C5.73445807,15.9763285 5.64608386,15.9703973 5.57664563,15.9644839 C5.50722633,15.9585705 5.24526601,15.9260022 4.79080252,15.8668147 C4.33633904,15.8076271 3.97971776,15.7484218 3.72091975,15.6892342 C3.46214067,15.6300466 3.07709648,15.5175671 2.56582507,15.3518313 C2.05455365,15.1860954 1.61713255,15.018566 1.25356177,14.8492786 C0.891259693,14.6811632 0.664027953,14.5746149 0.571866546,14.5296337 C0.48097385,14.4858246 0.378719567,14.4313785 0.265103697,14.3662597 L0.0946798918,14.2685905 L0.0909116321,14.263263 L0.0852119026,14.2597114 L0.0795311091,14.2561598 L0.0757439134,14.2508324 L0.0568079351,14.2419534 L0.0378719567,14.2330744 L0.034103697,14.2277469 L0.0284039675,14.2241953 L0.022723174,14.2206437 L0.0189359784,14.2153163 L0.0151677187,14.2099889 L0.00946798918,14.2064373 L0,14.2064373 L0,14.1709212 L0.0189359784,14.1744728 L0.0378719567,14.1798002 L0.123083859,14.1886792 C0.179891794,14.1945927 0.33454193,14.2034717 0.587015329,14.2153163 C0.839507665,14.2271609 1.10775473,14.2271609 1.39179441,14.2153163 C1.67583408,14.2034717 1.96619838,14.1768346 2.26284941,14.1354051 C2.55951939,14.0939756 2.90983499,14.0229434 3.31379621,13.9223085 C3.71777638,13.8216737 4.08892155,13.7021088 4.42725068,13.563596 C4.76431109,13.4239112 5.00415419,13.3197248 5.14681785,13.2510544 C5.28819387,13.1835738 5.50406402,13.0580777 5.79440938,12.8745838 L6.22993688,12.5993341 L6.23372408,12.5940067 L6.23940487,12.590455 L6.2451046,12.5869034 L6.24887286,12.581576 L6.25266005,12.5762486 L6.25834085,12.572697 L6.26404058,12.5691454 L6.26780884,12.563818 L6.28674482,12.5584906 L6.30568079,12.554939 L6.30946799,12.5371809 L6.31514878,12.5194229 L6.32084851,12.5158713 L6.32461677,12.5105438 L6.17312894,12.5016648 C6.07214337,12.4957514 5.97430117,12.4898202 5.87962128,12.4839068 C5.78494139,12.4779933 5.63661587,12.4513563 5.43462579,12.4039956 C5.23265464,12.3566349 5.01489089,12.2856027 4.78133454,12.190899 C4.54779711,12.0961953 4.32056537,11.9837159 4.09963931,11.8534961 C3.87873219,11.7232764 3.71902615,11.6149345 3.62055906,11.5285239 C3.52336069,11.4432675 3.39711452,11.3225305 3.2418395,11.1662597 C3.08783318,11.0088169 2.95401262,10.8472009 2.84039675,10.681465 C2.72678088,10.5157292 2.61822092,10.3245105 2.51471686,10.1078801 L2.35752931,9.78468368 L2.34806132,9.75804661 L2.33859333,9.73140954 L2.33291253,9.7136515 L2.32912534,9.69589345 L2.35752931,9.69944506 L2.38593327,9.70477248 L2.59422904,9.73140954 C2.7331055,9.74916759 2.95086925,9.75508102 3.24752029,9.74916759 C3.54419026,9.74325416 3.74932372,9.73140954 3.86293959,9.7136515 C3.97655546,9.69589345 4.04599369,9.68404883 4.07123535,9.67813541 L4.1091073,9.66925638 L4.15644725,9.66037736 L4.2037872,9.65149834 L4.20757439,9.64617092 L4.21325518,9.64261931 L4.21895491,9.6390677 L4.22272317,9.63374029 L4.18485122,9.62486127 L4.14697926,9.61598224 L4.1091073,9.60710322 L4.07123535,9.5982242 L4.03336339,9.58934517 C4.00812173,9.58343174 3.96394409,9.57158713 3.90081154,9.55382908 C3.83769793,9.53607103 3.66727412,9.47095228 3.38954013,9.35849057 C3.11182507,9.24602886 2.89089901,9.13651498 2.72678088,9.0299667 C2.56225593,8.92310958 2.40538179,8.80624757 2.25716862,8.68013319 C2.10946799,8.55227525 1.9472624,8.38771143 1.77051398,8.18645949 C1.59378449,7.98520755 1.43599098,7.75138735 1.29711452,7.48501665 C1.15825699,7.21864595 1.05410911,6.96411987 0.984670875,6.72142064 C0.915511867,6.48014904 0.869884072,6.23348102 0.848350766,5.98446171 L0.814247069,5.61154273 L0.833183048,5.61509434 L0.852119026,5.62042175 L0.871055005,5.62930078 L0.889990983,5.6381798 L0.908926961,5.64705882 L0.92786294,5.65593785 L1.2213706,5.78024417 C1.417055,5.86312098 1.66006041,5.93415316 1.95040577,5.99334073 C2.24077006,6.0525283 2.41433724,6.08509656 2.47114518,6.09100999 L2.55635708,6.09988901 L2.72678088,6.09988901 L2.72301262,6.0945616 L2.71731289,6.09100999 L2.7116321,6.08745838 L2.70784491,6.08213097 L2.70407665,6.07680355 L2.69837692,6.07325194 L2.69269612,6.06970033 L2.68890893,6.06437292 L2.66997295,6.0554939 L2.65103697,6.04661487 L2.64726871,6.04128746 L2.64156898,6.03773585 L2.63588819,6.03418424 L2.63210099,6.02885683 L2.61316501,6.0199778 L2.59422904,6.01109878 L2.59046078,6.00577137 C2.58667358,6.00339179 2.53238413,5.96551387 2.42759243,5.89211987 C2.32406943,5.81753607 2.21550947,5.7210566 2.1018936,5.60266371 C1.98827773,5.48427081 1.87466186,5.35996448 1.76104599,5.22974473 C1.64722093,5.09922661 1.54583952,4.95958538 1.45807033,4.81243063 C1.36971506,4.66445283 1.27628494,4.47619978 1.17781785,4.24772475 C1.08061948,4.02042175 1.00676916,3.79134295 0.956266907,3.56048835 C0.905783589,3.32963374 0.877379621,3.10174473 0.871055005,2.87680355 C0.864749324,2.65186238 0.871055005,2.45948946 0.889990983,2.29966704 C0.908926961,2.13984462 0.946798918,1.95929856 1.00360685,1.75804661 C1.06041479,1.55679467 1.14248332,1.34369811 1.24977457,1.11875694 L1.41073039,0.781354051 L1.42019838,0.754716981 L1.42966637,0.728079911 L1.4353661,0.724528302 L1.43913436,0.719200888 L1.44292155,0.713873474 L1.44860234,0.710321865 L1.45430207,0.713873474 L1.45807033,0.719200888 L1.46185753,0.724528302 L1.46753832,0.728079911 L1.47323805,0.731631521 L1.47700631,0.736958935 L1.48079351,0.742286349 L1.4864743,0.745837958 L1.49594229,0.763596004 L1.50541028,0.781354051 L1.51111001,0.78490566 L1.51487827,0.790233074 L1.77051398,1.05660377 C1.94093778,1.23418424 2.14292786,1.43248835 2.37646528,1.65149834 C2.61002164,1.87050832 2.73941118,1.98415982 2.76465284,1.99245283 C2.78991344,2.00191787 2.82146078,2.02914095 2.85933273,2.07413984 C2.89720469,2.11794895 3.02345086,2.22272142 3.2380523,2.38845727 C3.45267268,2.55419312 3.73355005,2.7465838 4.08070334,2.96559378 C4.42787556,3.18460377 4.81290081,3.40066593 5.23579802,3.61376249 C5.65871416,3.82685905 6.11317764,4.01923196 6.59918846,4.190899 C7.08521821,4.36256604 7.42606583,4.47502775 7.62173129,4.52830189 C7.81741569,4.58157603 8.15193868,4.64964262 8.62533814,4.73251942 C9.0987376,4.81539623 9.45537782,4.86867037 9.69522092,4.89234184 C9.93508296,4.91601332 10.0992011,4.92963374 10.1875564,4.93318535 L10.3201082,4.93673696 L10.3163399,4.91009989 L10.3106402,4.88346282 L10.2727683,4.66148724 C10.2475266,4.51350943 10.2348963,4.3063263 10.2348963,4.0399556 C10.2348963,3.77358491 10.2569946,3.52793785 10.3011722,3.30299667 C10.3453688,3.07805549 10.4116447,2.85016648 10.5,2.61931188 C10.5883742,2.38845727 10.6748548,2.20316981 10.7594229,2.06348502 C10.8452786,1.92497225 10.9576258,1.76692564 11.0964833,1.58934517 C11.2353598,1.41176471 11.4152516,1.22827081 11.6361587,1.03884573 C11.8570848,0.849420644 12.1095582,0.680719201 12.3935978,0.532741398 C12.6776375,0.384763596 12.9395978,0.272284129 13.1794409,0.195338513 C13.419303,0.118392897 13.6212931,0.0680665927 13.7853922,0.0443951165 C13.9495104,0.0207236404 14.03156,0.00710321865 14.03156,0.00355160932 Z" id="Shape"></path>
                            </g>
                        </g>
                    </g>
                </g>
            </g>
        </g>
    </g>
</svg>