<?xml version="1.0" encoding="UTF-8"?>
<svg width="21px" height="16px" viewBox="0 0 21 16" version="1.1" xmlns="http://www.w3.org/2000/svg" xmlns:xlink="http://www.w3.org/1999/xlink">
    <!-- Generator: sketchtool 50.2 (55047) - http://www.bohemiancoding.com/sketch -->
    <title>A4391146-8257-450C-A870-2413AC6984FF</title>
    <desc>Created with sketchtool.</desc>
    <defs></defs>
    <g id="Page-1" stroke="none" stroke-width="1" fill="none" fill-rule="evenodd">
        <g id="0101-Main-Desktop" transform="translate(-1277.000000, -26.000000)" fill="#FFFFFF" fill-rule="nonzero">
            <g id="Group-23">
                <g id="Group-19">
                    <g id="Group-18">
                        <g id="Group-17">
                            <g id="Header">
                                <g id="sign">
                                    <g id="Group-27" transform="translate(1182.000000, 15.000000)">
                                        <g id="Group">
                                            <path d="M115.602941,18.1501219 L108.875,11.3510972 C108.411765,10.8829676 107.661765,10.8829676 107.220588,11.3510972 C106.757353,11.8192268 106.757353,12.5771508 107.220588,13.0229885 L111.963235,17.8157436 L96.1691176,17.8157436 C95.5294118,17.8157436 95,18.3507489 95,18.9972135 C95,19.6436782 95.5294118,20.1786834 96.1691176,20.1786834 L111.941176,20.1786834 L107.220588,24.9714385 C106.757353,25.4395681 106.757353,26.1974922 107.220588,26.6433299 C107.441176,26.8662487 107.75,27 108.058824,27 C108.367647,27 108.654412,26.8885406 108.897059,26.6433299 L115.647059,19.8220132 C115.867647,19.5990944 116,19.287008 116,18.9749216 C115.955882,18.6851271 115.823529,18.3730408 115.602941,18.1501219 Z" id="Shape"></path>
                                        </g>
                                    </g>
                                </g>
                            </g>
                        </g>
                    </g>
                </g>
            </g>
        </g>
    </g>
</svg>