<svg xmlns="http://www.w3.org/2000/svg" xmlns:xlink="http://www.w3.org/1999/xlink" width="304" height="390" viewBox="0 0 304 390">
    <defs>
        <linearGradient id="a" x1="-8.231%" x2="202.17%" y1="166.498%" y2="-620.233%">
            <stop offset="0%" stop-color="#8400FF"/>
            <stop offset="29.231%" stop-color="#FF5353"/>
            <stop offset="65.005%" stop-color="#F3FFA3"/>
            <stop offset="100%" stop-color="#FFF"/>
        </linearGradient>
        <linearGradient id="d" x1="24.415%" x2="202.17%" y1="130.679%" y2="-620.233%">
            <stop offset="0%" stop-color="#9018FF"/>
            <stop offset="29.231%" stop-color="#FF5353"/>
            <stop offset="65.005%" stop-color="#F3FFA3"/>
            <stop offset="100%" stop-color="#FFF"/>
        </linearGradient>
        <path id="c" d="M22.567 18.5H4.833A4.435 4.435 0 0 1 .4 14.067a4.435 4.435 0 0 1 4.433-4.434h17.734A4.435 4.435 0 0 1 27 14.067a4.435 4.435 0 0 1-4.433 4.433"/>
        <filter id="b" width="716.5%" height="1949.6%" x="-308.3%" y="-902.3%" filterUnits="objectBoundingBox">
            <feOffset dy="2" in="SourceAlpha" result="shadowOffsetOuter1"/>
            <feGaussianBlur in="shadowOffsetOuter1" result="shadowBlurOuter1" stdDeviation="27"/>
            <feColorMatrix in="shadowBlurOuter1" values="0 0 0 0 0.784313725 0 0 0 0 0.211764706 0 0 0 0 0.662745098 0 0 0 0.538666214 0"/>
        </filter>
    </defs>
    <g fill="none" fill-rule="nonzero">
        <path fill="url(#a)" d="M13.7 27.367a4.435 4.435 0 0 1-4.433-4.434V5.2A4.435 4.435 0 0 1 13.7.767 4.435 4.435 0 0 1 18.133 5.2v17.733a4.435 4.435 0 0 1-4.433 4.434" transform="translate(261 338)"/>
        <g transform="translate(261 338)">
            <use fill="#000" filter="url(#b)" xlink:href="#c"/>
            <use fill="url(#d)" fill-rule="evenodd" xlink:href="#c"/>
        </g>
        <path fill="url(#a)" d="M16 32a3.201 3.201 0 0 1-3.2-3.2c0-5.293-4.307-9.6-9.6-9.6a3.201 3.201 0 0 1 0-6.4c5.293 0 9.6-4.307 9.6-9.6a3.201 3.201 0 0 1 6.4 0c0 5.293 4.307 9.6 9.6 9.6a3.201 3.201 0 0 1 0 6.4c-5.293 0-9.6 4.307-9.6 9.6 0 1.766-1.434 3.2-3.2 3.2"/>
    </g>
</svg>
