<svg xmlns="http://www.w3.org/2000/svg" width="393" height="64" viewBox="0 0 393 64">
    <defs>
        <linearGradient id="a" x1="-8.231%" x2="202.17%" y1="166.498%" y2="-620.233%">
            <stop offset="0%" stop-color="#8400FF"/>
            <stop offset="29.231%" stop-color="#FF5353"/>
            <stop offset="65.005%" stop-color="#F3FFA3"/>
            <stop offset="100%" stop-color="#FFF"/>
        </linearGradient>
    </defs>
    <path fill="url(#a)" fill-rule="evenodd" d="M0 62.94V5.386h19.65c2.996 0 5.772.22 8.327.662 2.555.441 4.788 1.221 6.697 2.34 1.91 1.117 3.407 2.589 4.494 4.413 1.087 1.824 1.63 4.12 1.63 6.886 0 1.294-.176 2.589-.529 3.884a15.153 15.153 0 0 1-1.498 3.619 13.714 13.714 0 0 1-2.335 3.001 8.478 8.478 0 0 1-3.128 1.942v.354c1.469.353 2.82.897 4.053 1.633a12.798 12.798 0 0 1 3.26 2.78c.94 1.118 1.675 2.428 2.204 3.929.528 1.5.793 3.222.793 5.164 0 2.942-.573 5.473-1.719 7.591-1.145 2.12-2.731 3.87-4.758 5.253s-4.391 2.413-7.093 3.09c-2.702.676-5.61 1.015-8.724 1.015H0zm12.953-34.515h6.08c3.172 0 5.478-.618 6.917-1.854 1.44-1.236 2.16-2.884 2.16-4.943 0-2.237-.735-3.826-2.204-4.767-1.468-.942-3.73-1.413-6.785-1.413h-6.168v12.977zm0 24.452h7.314c7.108 0 10.662-2.59 10.662-7.768 0-2.53-.881-4.34-2.644-5.429-1.762-1.089-4.435-1.633-8.018-1.633h-7.314v14.83zM71.815 64c-3.113 0-6.021-.515-8.724-1.545-2.702-1.03-5.052-2.53-7.049-4.502-1.997-1.971-3.554-4.37-4.67-7.194-1.116-2.825-1.674-6.062-1.674-9.71 0-3.532.587-6.724 1.762-9.579 1.175-2.854 2.717-5.267 4.626-7.238a20.107 20.107 0 0 1 6.565-4.546 19.242 19.242 0 0 1 7.666-1.59c3.114 0 5.83.53 8.15 1.59 2.321 1.059 4.26 2.53 5.817 4.413 1.556 1.884 2.716 4.105 3.48 6.665.764 2.56 1.146 5.34 1.146 8.342 0 1.177-.06 2.295-.177 3.355-.117 1.059-.235 1.853-.352 2.383H62.21c.587 3.178 1.894 5.517 3.92 7.018 2.027 1.5 4.51 2.251 7.446 2.251 3.114 0 6.257-.97 9.429-2.913l4.318 7.857c-2.233 1.53-4.715 2.736-7.446 3.619-2.732.883-5.42 1.324-8.063 1.324zm-9.693-27.719h15.773c0-2.471-.558-4.472-1.674-6.002-1.116-1.53-2.996-2.296-5.64-2.296-2.056 0-3.862.677-5.419 2.03-1.557 1.354-2.57 3.444-3.04 6.268zM114.728 64c-2.702 0-5.008-.412-6.917-1.236-1.91-.824-3.466-1.971-4.67-3.443-1.205-1.47-2.086-3.251-2.644-5.34-.558-2.09-.837-4.4-.837-6.93V29.308h-5.992v-9.622l6.697-.53 1.498-11.653h10.75v11.653h10.486v10.152h-10.486v17.566c0 2.472.514 4.252 1.542 5.341 1.028 1.089 2.394 1.633 4.097 1.633.705 0 1.425-.088 2.16-.265a14.383 14.383 0 0 0 1.982-.617l2.027 9.445a59.505 59.505 0 0 1-4.142 1.06c-1.586.352-3.436.529-5.551.529zm33.748 0c-2.702 0-5.007-.412-6.917-1.236-1.909-.824-3.466-1.971-4.67-3.443-1.204-1.47-2.085-3.251-2.643-5.34-.558-2.09-.837-4.4-.837-6.93V29.308h-5.992v-9.622l6.696-.53 1.498-11.653h10.75v11.653h10.487v10.152h-10.486v17.566c0 2.472.514 4.252 1.542 5.341 1.028 1.089 2.394 1.633 4.097 1.633.705 0 1.425-.088 2.159-.265a14.383 14.383 0 0 0 1.983-.617l2.026 9.445a59.505 59.505 0 0 1-4.141 1.06c-1.586.352-3.437.529-5.552.529zm36.48 0c-3.113 0-6.02-.515-8.723-1.545-2.702-1.03-5.052-2.53-7.05-4.502-1.996-1.971-3.553-4.37-4.67-7.194-1.115-2.825-1.674-6.062-1.674-9.71 0-3.532.588-6.724 1.763-9.579 1.175-2.854 2.717-5.267 4.626-7.238a20.107 20.107 0 0 1 6.565-4.546 19.242 19.242 0 0 1 7.666-1.59c3.113 0 5.83.53 8.15 1.59 2.32 1.059 4.26 2.53 5.816 4.413 1.557 1.884 2.717 4.105 3.48 6.665.765 2.56 1.146 5.34 1.146 8.342 0 1.177-.058 2.295-.176 3.355-.117 1.059-.235 1.853-.352 2.383h-26.171c.587 3.178 1.895 5.517 3.921 7.018 2.027 1.5 4.509 2.251 7.446 2.251 3.114 0 6.256-.97 9.429-2.913l4.317 7.857c-2.232 1.53-4.714 2.736-7.446 3.619-2.731.883-5.419 1.324-8.062 1.324zm-9.692-27.719h15.773c0-2.471-.558-4.472-1.674-6.002-1.117-1.53-2.996-2.296-5.64-2.296-2.056 0-3.862.677-5.42 2.03-1.556 1.354-2.57 3.444-3.04 6.268zm35.775 26.66V19.156h10.574l.881 7.68h.353c1.586-3.002 3.495-5.208 5.727-6.62 2.233-1.413 4.465-2.12 6.697-2.12 1.234 0 2.247.074 3.04.221a9.276 9.276 0 0 1 2.16.662l-2.116 11.211a20.868 20.868 0 0 0-2.29-.53c-.706-.117-1.528-.176-2.468-.176-1.645 0-3.363.589-5.155 1.766-1.791 1.177-3.275 3.266-4.45 6.267v25.424H211.04zM264.702 64c-3.76 0-7.504-.691-11.235-2.074-3.73-1.383-7.064-3.458-10-6.224l7.4-8.916a27.978 27.978 0 0 0 6.83 4.326c2.497 1.118 4.95 1.677 7.358 1.677 2.702 0 4.714-.5 6.036-1.5 1.321-1.001 1.982-2.355 1.982-4.061 0-.883-.19-1.648-.572-2.296-.382-.647-.94-1.22-1.675-1.721-.734-.5-1.615-.971-2.643-1.412l-3.393-1.457-7.49-3.178a22.297 22.297 0 0 1-4.273-2.295 18.885 18.885 0 0 1-3.701-3.31c-1.087-1.266-1.953-2.737-2.6-4.414-.646-1.677-.969-3.575-.969-5.694 0-2.354.5-4.576 1.498-6.665.999-2.089 2.409-3.913 4.23-5.473 1.82-1.56 3.98-2.78 6.476-3.663 2.497-.883 5.243-1.324 8.24-1.324 3.348 0 6.652.647 9.912 1.942a25.1 25.1 0 0 1 8.592 5.65l-6.609 8.209c-1.88-1.471-3.76-2.604-5.64-3.399-1.88-.794-3.965-1.191-6.256-1.191-2.232 0-4.01.456-5.33 1.368-1.323.912-1.983 2.192-1.983 3.84 0 .883.22 1.633.66 2.25.441.619 1.058 1.178 1.85 1.678.794.5 1.72.971 2.777 1.413 1.057.44 2.202.926 3.436 1.456l7.402 3.001c3.525 1.413 6.3 3.355 8.327 5.827 2.027 2.471 3.04 5.738 3.04 9.798 0 2.413-.485 4.694-1.454 6.842-.97 2.148-2.38 4.03-4.23 5.65-1.85 1.618-4.126 2.912-6.829 3.883-2.702.971-5.757 1.457-9.164 1.457zm49.962 0c-3.113 0-6.02-.515-8.723-1.545-2.702-1.03-5.052-2.53-7.05-4.502-1.997-1.971-3.554-4.37-4.67-7.194-1.116-2.825-1.674-6.062-1.674-9.71 0-3.532.588-6.724 1.762-9.579 1.175-2.854 2.717-5.267 4.627-7.238a20.107 20.107 0 0 1 6.564-4.546 19.242 19.242 0 0 1 7.666-1.59c3.114 0 5.83.53 8.151 1.59 2.32 1.059 4.26 2.53 5.816 4.413 1.557 1.884 2.717 4.105 3.48 6.665.764 2.56 1.146 5.34 1.146 8.342 0 1.177-.059 2.295-.176 3.355-.118 1.059-.235 1.853-.353 2.383h-26.17c.587 3.178 1.894 5.517 3.92 7.018 2.028 1.5 4.51 2.251 7.447 2.251 3.113 0 6.256-.97 9.428-2.913l4.318 7.857c-2.232 1.53-4.714 2.736-7.446 3.619-2.732.883-5.42 1.324-8.063 1.324zm-9.692-27.719h15.772c0-2.471-.558-4.472-1.674-6.002-1.116-1.53-2.996-2.296-5.64-2.296-2.055 0-3.862.677-5.418 2.03-1.557 1.354-2.57 3.444-3.04 6.268zM352.642 64c-2.232 0-4.111-.353-5.639-1.06-1.527-.706-2.746-1.691-3.657-2.957-.91-1.265-1.571-2.795-1.982-4.59-.412-1.795-.617-3.81-.617-6.047V1.06H353.7v48.817c0 1.353.25 2.295.749 2.825.5.53 1.013.794 1.542.794h.749c.206 0 .485-.059.837-.176l1.586 9.622c-.705.294-1.6.544-2.687.75-1.087.206-2.365.309-3.833.309zm15.51-1.06V29.309h-5.817v-9.622l5.816-.442v-2.383c0-2.295.28-4.473.837-6.533.558-2.06 1.484-3.854 2.776-5.385 1.292-1.53 2.966-2.736 5.023-3.619C378.843.441 381.339 0 384.277 0c1.82 0 3.48.177 4.978.53 1.498.353 2.746.706 3.745 1.059l-2.38 9.534c-1.644-.589-3.142-.883-4.493-.883-1.586 0-2.82.486-3.701 1.457-.881.97-1.322 2.574-1.322 4.81v2.649h7.843v10.152h-7.843V62.94h-12.953z"/>
</svg>
