<svg xmlns="http://www.w3.org/2000/svg" xmlns:xlink="http://www.w3.org/1999/xlink" width="1344" height="558" viewBox="0 0 1344 558">
    <defs>
        <linearGradient id="c" x1="-47.406%" x2="107.422%" y1="156.625%" y2="-35.212%">
            <stop offset="0%" stop-color="#B917D7"/>
            <stop offset="40.349%" stop-color="#B715DD"/>
            <stop offset="73.814%" stop-color="#FFB854"/>
            <stop offset="100%" stop-color="#FFF"/>
        </linearGradient>
        <path id="b" d="M1491 472.255c0 39.54-39.474 68.538-75.439 56.236-17.543 6.151-37.719 6.151-54.386-.879-9.649-4.393-23.684-19.33-14.912-30.754-18.42 0-15.79-14.06-15.79-15.816-3.508 7.908 3.51 17.573 14.036 17.573-4.386 4.394-2.632 16.696 6.14 22.847-27.193 13.18-59.649-5.273-59.649-35.148 0-20.21 14.035-37.784 32.456-43.056 0-19.332 17.544-34.27 35.965-30.755 14.035-23.725 45.614-25.482 60.526-7.03 3.51 3.515 6.14 8.788 7.018 14.06-6.14 1.757-17.544 8.787-20.176 20.21 5.264-11.423 14.036-17.574 23.685-19.332 32.456-4.393 60.526 18.453 60.526 51.844z"/>
        <filter id="a" width="146%" height="165.7%" x="-23%" y="-31.4%" filterUnits="objectBoundingBox">
            <feOffset dy="2" in="SourceAlpha" result="shadowOffsetOuter1"/>
            <feGaussianBlur in="shadowOffsetOuter1" result="shadowBlurOuter1" stdDeviation="15"/>
            <feColorMatrix in="shadowBlurOuter1" values="0 0 0 0 0.954506803 0 0 0 0 0.157935775 0 0 0 0 0.785371858 0 0 0 0.519134964 0"/>
        </filter>
        <linearGradient id="d" x1="24.415%" x2="202.17%" y1="130.679%" y2="-620.233%">
            <stop offset="0%" stop-color="#9018FF"/>
            <stop offset="29.231%" stop-color="#FF5353"/>
            <stop offset="65.005%" stop-color="#F3FFA3"/>
            <stop offset="100%" stop-color="#FFF"/>
        </linearGradient>
        <path id="f" d="M44.955 9.494C28.713 9.494 15.5 22.223 15.5 37.87v41.927c0 4.025 3.265 7.298 7.279 7.298 4.01 0 7.276-3.273 7.276-7.298v-3.242c0-2.11 1.71-3.825 3.81-3.825a3.822 3.822 0 0 1 3.812 3.825v3.242c0 4.025 3.265 7.298 7.279 7.298 4.014 0 7.278-3.273 7.278-7.298v-3.242c0-2.11 1.71-3.825 3.811-3.825a3.822 3.822 0 0 1 3.812 3.825v3.242c0 4.025 3.264 7.298 7.276 7.298 4.012 0 7.277-3.273 7.277-7.298V37.87c0-15.647-13.212-28.376-29.455-28.376zM32.249 44.24c-3.828 0-6.93-3.111-6.93-6.949 0-3.837 3.102-6.949 6.93-6.949s6.931 3.112 6.931 6.95-3.103 6.948-6.93 6.948zm12.706 24.323c-4.776 0-8.663-3.897-8.663-8.687 0-4.788 3.887-8.687 8.663-8.687s8.663 3.897 8.663 8.687c0 4.79-3.887 8.687-8.663 8.687zM57.661 44.24c-3.829 0-6.931-3.111-6.931-6.949 0-3.837 3.102-6.949 6.93-6.949s6.931 3.112 6.931 6.95-3.103 6.948-6.93 6.948z"/>
        <filter id="e" width="200.2%" height="176%" x="-50.1%" y="-35.4%" filterUnits="objectBoundingBox">
            <feOffset dy="2" in="SourceAlpha" result="shadowOffsetOuter1"/>
            <feGaussianBlur in="shadowOffsetOuter1" result="shadowBlurOuter1" stdDeviation="9.5"/>
            <feColorMatrix in="shadowBlurOuter1" values="0 0 0 0 0.784313725 0 0 0 0 0.211764706 0 0 0 0 0.662745098 0 0 0 0.538666214 0"/>
        </filter>
    </defs>
    <g fill="none" fill-rule="evenodd">
        <g>
            <use fill="#000" filter="url(#a)" xlink:href="#b"/>
            <use fill="url(#c)" xlink:href="#b"/>
        </g>
        <path fill="url(#d)" fill-rule="nonzero" d="M1337 40c-2.208 0-4-1.792-4-4 0-6.616-5.384-12-12-12-2.208 0-4-1.792-4-4s1.792-4 4-4c6.616 0 12-5.384 12-12 0-2.208 1.792-4 4-4s4 1.792 4 4c0 6.616 5.384 12 12 12 2.208 0 4 1.792 4 4s-1.792 4-4 4c-6.616 0-12 5.384-12 12 0 2.208-1.792 4-4 4"/>
        <g fill-rule="nonzero" transform="rotate(30 15.099 56.294)">
            <use fill="#000" filter="url(#e)" xlink:href="#f"/>
            <use fill="url(#d)" fill-rule="evenodd" xlink:href="#f"/>
        </g>
    </g>
</svg>
