<svg xmlns="http://www.w3.org/2000/svg" width="63" height="34" viewBox="0 0 63 34">
    <g fill="none" fill-rule="nonzero">
        <path fill="#A617D1" d="M5.17 32.098c.564-2.911.868-5.855 1.529-8.748.872-3.814 3.584-6.805 6.184-9.574 5.066-5.396 11.572-8.829 19.002-9.129 6.555-.264 12.787 2.801 17.621 7 6.132 5.328 8.258 12.024 8.994 19.853.27 2.863 4.771 2.89 4.5 0-.771-8.199-2.721-14.724-8.256-20.992C49.588 4.668 42.348 1.232 34.709.269 26.258-.796 18.381 3.038 12.093 8.324c-3.352 2.818-6.44 6.462-8.476 10.344C1.668 22.387 1.614 26.862.83 30.901c-.55 2.835 3.787 4.044 4.34 1.197z"/>
        <path fill="#DD6B95" d="M13.25 31c.688-11.413 10.727-19.429 21.871-18.731 10.522.658 14.534 10.672 15.959 19.58.458 2.859 4.794 1.642 4.34-1.196C53.546 18.944 47.719 9.317 35.121 7.77 21.479 6.094 9.541 17.87 8.75 31c-.175 2.9 4.326 2.883 4.5 0z"/>
        <path fill="#FFBA58" d="M20.17 32.098c1.196-4.779 2.717-9.112 7.606-11.143 7.688-3.193 15 2.515 15.224 10.544l3.386-1.943.307.307c-1.688-2.322-5.596-.08-3.885 2.271.391.538.736.951 1.307 1.307 1.431.894 3.433-.261 3.386-1.943-.238-8.556-7.154-16.928-16.25-16-9.049.923-13.37 7.218-15.42 15.402-.706 2.818 3.634 4.012 4.339 1.198z"/>
    </g>
</svg>
